{
    "asset" : {
        "generator" : "Khronos glTF Blender I/O v1.7.33",
        "version" : "2.0"
    },
    "scene" : 0,
    "scenes" : [
        {
            "name" : "Scene",
            "nodes" : [
                0
            ]
        }
    ],
    "nodes" : [
        {
            "mesh" : 0,
            "name" : "star",
            "rotation" : [
                -0.6987611055374146,
                -0.10831841826438904,
                0.10831841081380844,
                0.6987611651420593
            ],
            "scale" : [
                0.5,
                0.5,
                0.5
            ],
            "translation" : [
                0.002309560775756836,
                0,
                0
            ]
        }
    ],
    "materials" : [
        {
            "doubleSided" : true,
            "name" : "yellow",
            "pbrMetallicRoughness" : {
                "baseColorFactor" : [
                    1,
                    0.5457246899604797,
                    0.07421363890171051,
                    1
                ],
                "metallicFactor" : 0,
                "roughnessFactor" : 0.8999999761581421
            }
        },
        {
            "doubleSided" : true,
            "name" : "Material.001",
            "pbrMetallicRoughness" : {
                "baseColorFactor" : [
                    1,
                    0.5457246899604797,
                    0.07421363890171051,
                    1
                ],
                "metallicFactor" : 0,
                "roughnessFactor" : 0.5
            }
        }
    ],
    "meshes" : [
        {
            "name" : "Circle",
            "primitives" : [
                {
                    "attributes" : {
                        "POSITION" : 0,
                        "NORMAL" : 1,
                        "TEXCOORD_0" : 2
                    },
                    "indices" : 3,
                    "material" : 0
                },
                {
                    "attributes" : {
                        "POSITION" : 4,
                        "NORMAL" : 5,
                        "TEXCOORD_0" : 6
                    },
                    "indices" : 7,
                    "material" : 1
                }
            ]
        }
    ],
    "accessors" : [
        {
            "bufferView" : 0,
            "componentType" : 5126,
            "count" : 381,
            "max" : [
                0.926038920879364,
                0.04999999329447746,
                0.7917776703834534
            ],
            "min" : [
                -0.9260389804840088,
                -0.05000000819563866,
                -0.9736950397491455
            ],
            "type" : "VEC3"
        },
        {
            "bufferView" : 1,
            "componentType" : 5126,
            "count" : 381,
            "type" : "VEC3"
        },
        {
            "bufferView" : 2,
            "componentType" : 5126,
            "count" : 381,
            "type" : "VEC2"
        },
        {
            "bufferView" : 3,
            "componentType" : 5123,
            "count" : 2268,
            "type" : "SCALAR"
        },
        {
            "bufferView" : 4,
            "componentType" : 5126,
            "count" : 3330,
            "max" : [
                -0.3515055775642395,
                0.04890887066721916,
                0.5553207397460938
            ],
            "min" : [
                -1.8194174766540527,
                -0.051091134548187256,
                -0.09296965599060059
            ],
            "type" : "VEC3"
        },
        {
            "bufferView" : 5,
            "componentType" : 5126,
            "count" : 3330,
            "type" : "VEC3"
        },
        {
            "bufferView" : 6,
            "componentType" : 5126,
            "count" : 3330,
            "type" : "VEC2"
        },
        {
            "bufferView" : 7,
            "componentType" : 5123,
            "count" : 5244,
            "type" : "SCALAR"
        }
    ],
    "bufferViews" : [
        {
            "buffer" : 0,
            "byteLength" : 4572,
            "byteOffset" : 0
        },
        {
            "buffer" : 0,
            "byteLength" : 4572,
            "byteOffset" : 4572
        },
        {
            "buffer" : 0,
            "byteLength" : 3048,
            "byteOffset" : 9144
        },
        {
            "buffer" : 0,
            "byteLength" : 4536,
            "byteOffset" : 12192
        },
        {
            "buffer" : 0,
            "byteLength" : 39960,
            "byteOffset" : 16728
        },
        {
            "buffer" : 0,
            "byteLength" : 39960,
            "byteOffset" : 56688
        },
        {
            "buffer" : 0,
            "byteLength" : 26640,
            "byteOffset" : 96648
        },
        {
            "buffer" : 0,
            "byteLength" : 10488,
            "byteOffset" : 123288
        }
    ],
    "buffers" : [
        {
            "byteLength" : 133776,
            "uri" : "data:application/octet-stream;base64,"
        }
    ]
}
